<svg xmlns="http://www.w3.org/2000/svg" width="55.031" height="53" viewBox="0 0 55.031 53">
  <defs>
    <style>
      .cls-1 {
        fill: #3c3c3c;
        fill-rule: evenodd;
      }
    </style>
  </defs>
  <path id="Фигура_26" data-name="Фигура 26" class="cls-1" d="M523.711,5215.56v-0.22a3.161,3.161,0,1,0-6.321,0v0.22h-5.464v-2.38h-3.164l-0.82-2.21h12.411V5190H489.881v20.97h12.411l-0.82,2.21h-3.165v2.38H485.523l0.128-1.03h1.2a2.6,2.6,0,0,0,0-5.2h-8.507l0.778,6.23h-1.519v5.14h3.131V5243h4.868v-17.85l4.44-4.45h4.5v3.02h21.152v-3.02h4.5l4.44,4.45V5243H529.5v-22.3h3.131v-5.14h-8.916Zm-37.615-4.59h0.759a0.96,0.96,0,0,1,0,1.92h-1Zm32.928,4.37a1.547,1.547,0,0,1,.71-1.3v0.64h1.634v-0.64a1.549,1.549,0,0,1,.709,1.3v0.22h-3.053v-0.22Zm-27.509-6.01v-17.69h27.2v17.69h-27.2Zm15.5,3.85h-3.8l0.82-2.21H506.2Zm-7.076,1.64h10.35v0.74h-10.35v-0.74Zm-15.493-3.85-0.573,4.59h-3.1l-0.573-4.59h4.249Zm-0.478,13.61v16.78h-1.6V5220.7h1.6v3.88Zm1.635-1.75v-2.07h2.063Zm28.453-.75H496.175v-1.38h17.884v1.38h0Zm10.569,0.75-2.063-2.07h2.063v2.07Zm3.234,18.53h-1.6V5220.7h1.6v20.66Zm3.131-22.3H479.241v-1.86h51.752v1.86Zm-13.772-26.1H493.013v15.05h24.208v-15.05h0Zm-1.634,13.41h-20.94v-11.78h20.94v11.78h0Zm-13.725-10.72,1.155,1.15-4.2,4.22-1.156-1.16Zm7.189,2.86-6.478,6.49-1.156-1.15,6.478-6.5Zm3.564,4.22-3.232,3.24-1.155-1.16,3.232-3.24Z" transform="translate(-477.594 -5190)"/>
</svg>
