<svg xmlns="http://www.w3.org/2000/svg" width="55.032" height="55.09" viewBox="0 0 55.032 55.09">
  <defs>
    <style>
      .cls-1 {
        fill: #324ea7;
        fill-rule: evenodd;
      }
    </style>
  </defs>
  <path id="Фигура_17" data-name="Фигура 17" class="cls-1" d="M253.232,4915.82H229.741v17.21h48.613v-17.21H253.232Zm0,5.19v10.25H231.373v-13.81h21.859v3.56Zm23.49,10.39H254.863v-3.56h21.859v3.56Zm0-5.19H254.863v-3.57h21.859v3.57Zm0-5.2H254.863v-3.56h21.859v3.56Zm-50.179-40.06v15.41h13.022v3.25h28.964v-3.25h13.023v-15.41H226.543Zm40.355,17.03H241.2v-1.62h25.7v1.62Zm13.023-3.25H228.174v-12.14h51.747v12.14h0Zm-32.888-.96h31.321v-10.22H229.741v10.22h17.292Zm15.66-8.59h14.029v6.96H262.693v-6.96Zm-15.66,0h14.029v6.96H247.033v-6.96h0Zm-15.66,0H245.4v6.96H231.373v-6.96Zm47.458,26.01,0.788-5.46H267.966l0.788,5.46a3.556,3.556,0,0,0,.66,1.61h-3.489v-2.68h-2.319v-2.08h-2.329v1.63h0.7v0.45h-4.028v-0.45h0.786v-1.63h-2.418v2.08H251.78v-2.08h-2.33v1.63h0.7v0.45H246.12v-0.45h0.786v-1.63h-2.417v2.08H242.17v2.68H226.543v23.25h55.009V4912.8h-3.38A3.555,3.555,0,0,0,278.831,4911.19Zm-1.1-3.83-0.519,3.6a1.963,1.963,0,0,1-1.932,1.68H272.3a1.962,1.962,0,0,1-1.932-1.68l-0.52-3.6h7.887Zm-33.935,4.39h20.493v1.05H243.8v-1.05Zm36.12,2.68v19.99H228.174v-19.99h51.747Zm-43.858-24.8h4.144v1.63h-4.144v-1.63Zm5.014,0h1.631v1.63h-1.631v-1.63Zm-1.58,30.28h4.143v1.63H239.5v-1.63Zm5.013,0h1.631v1.63H244.51v-1.63Zm18.661-1.5h4.143v1.63h-4.143v-1.63Zm5.013,0h1.632v1.63h-1.632v-1.63Zm-5.013,5.2h4.143v1.63h-4.143v-1.63Zm5.013,0h1.632v1.63h-1.632v-1.63Zm-5.013,5.19h4.143v1.64h-4.143v-1.64Zm5.013,0h1.632v1.63h-1.632v-1.63Zm-16.725-39.17H255.6v1.63h-4.144v-1.63Zm5.014,0H258.1v1.63h-1.631v-1.63Zm10.81,0h4.143v1.63h-4.143v-1.63Zm5.013,0h1.632v1.63H272.3v-1.63Z" transform="translate(-226.531 -4880.97)"/>
</svg>
