<svg xmlns="http://www.w3.org/2000/svg" width="62.031" height="55" viewBox="0 0 62.031 55">
  <defs>
    <style>
      .cls-1 {
        fill: #3c3c3c;
        fill-rule: evenodd;
      }
    </style>
  </defs>
  <path id="Фигура_27" data-name="Фигура 27" class="cls-1" d="M764.812,5224.31l-0.519-1.78c-1.421.41-2.862,0.75-4.284,1.03l0.354,1.82C761.84,5225.1,763.337,5224.74,764.812,5224.31Zm26.179,1.24a2.833,2.833,0,0,0-3.939-.26,51.568,51.568,0,0,1-7.181,5.07l-7.243-14.23,7.2-1.35-0.172-.91a5.458,5.458,0,0,0-6.375-4.34l-2.015.37-1.626-8.61a3.137,3.137,0,0,0-3.661-2.49l-19.059,3.57-4.4-9.73a7.949,7.949,0,0,0-10.471-3.95l-2.35,1.06,14.3,31.6-0.228,2.33c-1.1-.21-2.192-0.45-3.263-0.73l-0.483,1.79c1.169,0.31,2.361.58,3.564,0.79l-0.312,3.18q-1.594-.39-3.136-0.9l-0.59,1.76c1.158,0.39,2.34.72,3.542,1l-0.578,5.89a58.857,58.857,0,0,1-7.015-1.62,2.829,2.829,0,0,0-3.652,2.56,2.78,2.78,0,0,0,.25,1.32c0.011,0.03.022,0.05,0.035,0.08a2.858,2.858,0,0,0,1.725,1.46,67.539,67.539,0,0,0,18.125,2.73,63.327,63.327,0,0,0,12.626-1.05,57.239,57.239,0,0,0,6.829-1.71,56.239,56.239,0,0,0,19.272-10.62A2.827,2.827,0,0,0,790.991,5225.55Zm-19.377-13.82,2.015-.38a3.617,3.617,0,0,1,3.9,1.97l-5.427,1.02-0.491-2.61h0Zm6.63,19.54c-0.628.34-1.262,0.66-1.9,0.97l-5.193-10.2c0.37-.16.739-0.32,1.106-0.49l-0.772-1.69c-0.392.18-.785,0.35-1.179,0.52l-1.773-3.48,2.188-.41Zm-29.161-1.6,0.915-9.3,16.622-3.12,1.949,3.83c-0.759.3-1.519,0.57-2.276,0.82l0.594,1.77c0.841-.28,1.686-0.59,2.53-0.92l5.227,10.27a53.794,53.794,0,0,1-22.434,4.32c-1.338-.02-2.627-0.08-3.863-0.17l0.555-5.65c0.544,0.05,1.09.1,1.639,0.13l0.109-1.86Q749.864,5229.745,749.083,5229.67Zm1.454-19.32-0.961-2.12,14.483-2.72,1.046,5.55-13.866,2.59A7.838,7.838,0,0,0,750.537,5210.35Zm0.443,5.24,14.47-2.7,0.492,2.6-16.488,3.09a7.93,7.93,0,0,0,.885-1.34A7.831,7.831,0,0,0,750.98,5215.59Zm16.735-.76-1.823-9.66,1.249-.23a3.253,3.253,0,0,0,1.2-.5l1.872,9.92Zm-1.388-14.2a1.262,1.262,0,1,1,.469,2.48l-22.837,4.28a1.267,1.267,0,1,1-.47-2.49Zm-34.159-9.95,0.649-.29a6.067,6.067,0,0,1,8,3.02l4.215,9.31-1.892.35a3.124,3.124,0,1,0,1.159,6.14l3.385-.63,1.147,2.54a6.017,6.017,0,0,1-3.7,8.22Zm13.27,35.14c0.206,0.03.413,0.06,0.619,0.08l0.227-1.84-0.664-.09,0.279-2.84,2.189-.41-0.858,8.74q-1.067-.15-2.114-0.36Zm-0.5,5.14c0.7,0.13,1.4.25,2.114,0.35l-0.559,5.69c-0.731-.08-1.44-0.17-2.123-0.26Zm44.92-3.44a0.959,0.959,0,0,1-.342.67,54.483,54.483,0,0,1-18.635,10.27,57.567,57.567,0,0,1-6.608,1.66,61.842,61.842,0,0,1-12.253,1.01,65.43,65.43,0,0,1-17.613-2.65,0.967,0.967,0,0,1-.627-1.27,0.971,0.971,0,0,1,.735-0.61,1,1,0,0,1,.455.02,64.485,64.485,0,0,0,17.219,2.58,60.057,60.057,0,0,0,11.824-.99,52.154,52.154,0,0,0,24.246-11.5A0.973,0.973,0,0,1,789.854,5227.52Zm-54.939.11a24.907,24.907,0,0,0,2.983,1.35l0.675-1.74a21.19,21.19,0,0,1-2.733-1.23Zm3.445-5.32a31.774,31.774,0,0,1-7.093-3.21l-1.046,1.54a33.135,33.135,0,0,0,7.557,3.43Zm-0.631-28.37,1.7-.76,0.634,1.39-1.7.77Zm5.453,7.49-1.7.76-2.51-5.51,1.7-.77Z" transform="translate(-729.688 -5188)"/>
</svg>
