<?xml version="1.0" encoding="UTF-8" standalone="no"?>
<svg
   xmlns:dc="http://purl.org/dc/elements/1.1/"
   xmlns:cc="http://creativecommons.org/ns#"
   xmlns:rdf="http://www.w3.org/1999/02/22-rdf-syntax-ns#"
   xmlns:svg="http://www.w3.org/2000/svg"
   xmlns="http://www.w3.org/2000/svg"
   version="1.1"
   id="svg2"
   viewBox="0 0 4864.3854 4307.1432"
   height="1215.5715mm"
   width="1372.8376mm">
  <defs
     id="defs4" />
  <metadata
     id="metadata7">
    <rdf:RDF>
      <cc:Work
         rdf:about="">
        <dc:format>image/svg+xml</dc:format>
        <dc:type
           rdf:resource="http://purl.org/dc/dcmitype/StillImage" />
        <dc:title></dc:title>
      </cc:Work>
    </rdf:RDF>
  </metadata>
  <g
     transform="translate(7962.1067,3188.6377)"
     id="layer1">
    <path
       id="path3363"
       d="m -7595.0178,1109.2197 c -10.4428,-4.8834 -23.8946,-15.9077 -29.8929,-24.4985 -10.6186,-15.2078 -10.906,-20.6714 -10.906,-207.33952 0,-149.52367 -1.4303,-192.04391 -6.4985,-193.19129 -3.5741,-0.80915 -22.8746,-4.87383 -42.8899,-9.03262 -97.7447,-20.30933 -192.6449,-86.39618 -235.6034,-164.06999 -24.2453,-43.83838 -35.0117,-76.84472 -40.1646,-123.1322 -6.206,-55.74731 13.5872,-132.67694 46.6732,-181.4026 l 16.6246,-24.48307 -19.3142,-36.81319 c -63.6696,-121.355645 -58.688,-257.17252 13.9017,-379.00508 l 22.9288,-38.48303 0,-179.12622 c 0,-185.10739 3.6555,-237.86386 21.604,-311.7887 59.5032,-245.07669 248.2464,-445.23739 519.5152,-550.94169 269.7551,-105.1145 574.7276,-104.4529 858.1484,1.8617 177.0986,66.4319 313.904,160.6921 469.045,323.1766 117.1683,122.71436 173.6408,165.53712 260.5208,197.55111 47.0336,17.33119 128.8285,34.38711 202.8161,42.29132 37.982,4.05768 322.2987,6.3436 1055.3509,8.48511 1132.4327,3.30827 1018.1483,-0.90519 1117.7361,41.20855 131.7347,55.70797 221.6898,150.98046 263.3385,278.90505 l 11.9406,36.67569 1.7775,381.9368329 c 1.9008,408.4261371 1.071,425.3767671 -23.5422,480.8722771 -34.7428,78.3347 -117.8347,154.98684 -197.0267,181.75679 l -22.6957,7.67201 0,198.71249 c 0,225.81797 0.808,221.14327 -41.6558,241.01947 -20.9199,9.792 -28.5365,10.4684 -117.8914,10.4684 -105.5402,0 -120.138,-2.7368 -143.0272,-26.8146 -9.6533,-10.1546 -34.7822,-70.6233 -87.2696,-210.00069 l -73.7127,-195.73968 -1683.2427,0 -1683.2426,0 -75.9737,198.59731 c -50.3215,131.54176 -79.9689,202.43656 -87.8062,209.96806 -22.258,21.3895 -37.9739,24.0048 -142.9345,23.7862 -86.1534,-0.1795 -99.8783,-1.2482 -116.6309,-9.0823 z m 194.0275,-271.35596 c 28.1083,-74.62931 51.1061,-137.26925 51.1061,-139.19987 0,-1.93058 -28.0734,-3.51014 -62.3853,-3.51014 l -62.3853,0 0,140.67033 0,140.67032 11.2792,-1.47045 c 9.8712,-1.2869 17.6583,-18.40747 62.3853,-137.16019 z m 3898.1979,-6.96138 0,-144.95193 -64.9847,0 c -35.7415,0 -64.9846,0.55652 -64.9846,1.23669 0,1.30301 102.1866,273.01499 106.3999,282.91511 1.3464,3.16364 7.2003,5.75206 13.0087,5.75206 10.3916,0 10.5607,-2.32125 10.5607,-144.95193 z m 124.7705,-304.15705 c 58.4857,-24.66884 95.873,-65.14789 112.1663,-121.44184 10.9216,-37.73457 6.9186,-71.02999 -13.107,-109.01885 -28.5433,-54.14686 -82.9782,-91.75089 -148.1027,-102.31048 -41.8347,-6.7832 -4163.5905,-7.1083 -4203.9611,-0.33132 -60.2346,10.11121 -126.9328,52.71157 -148.8382,95.06348 -51.3292,99.24003 7.338,214.9258 125.8522,248.16793 16.6687,4.67545 439.6231,5.66334 2131.4968,4.97866 l 2110.7017,-0.85439 33.792,-14.25319 z m 111.9231,-895.80091 c -24.9645,-107.2076 -122.866,-196.93225 -241.8924,-221.6893 -29.6367,-6.16433 -148.2226,-7.03961 -964.3723,-7.11802 -586.0771,-0.0561 -962.1883,-1.86436 -1015.9604,-4.884 -222.0844,-12.47144 -357.9583,-51.82598 -481.4652,-139.45149 -43.4442,-30.82276 -78.7459,-63.90383 -179.9421,-168.62323 -93.6582,-96.91876 -157.7922,-148.32846 -253.9764,-203.58686 -200.6855,-115.2949 -458.6637,-160.5477 -686.238,-120.3752 -159.8865,28.224 -313.1742,99.5859 -423.9123,197.3492 -112.4918,99.31156 -178.8552,225.36797 -199.8346,379.58283 -4.9722,36.55016 -7.7435,253.21138 -3.2387,253.21138 1.1362,0 15.7578,-5.98964 32.4923,-13.31031 128.748,-56.32202 294.4996,-55.36769 424.4327,2.44365 50.1684,22.32145 75.9382,38.44531 119.2622,74.62075 46.13,38.51838 76.1753,75.83204 104.8371,130.1984 35.579,67.48728 42.1386,95.49696 42.1386,179.933024 l 0,72.47753 1782.0985,-0.0016 c 1991.8231,-0.0017 1823.3718,-2.962864 1906.4307,33.511874 l 44.1896,19.40552 1.3506,-215.205168 c 1.1063,-176.27176 -0.052,-221.22665 -6.3999,-248.48902 z M -7669.1535,48.618048 c 28.4775,-5.339983 84.6462,-6.75522 270.6244,-6.818538 218.5621,-0.07455 234.9472,-0.633233 238.456,-8.13277 8.663,-18.516068 8.8195,-95.392084 0.2599,-127.69575 -32.6758,-123.31806 -154.053,-213.99382 -297.2051,-222.02945 -148.2362,-8.32103 -294.685,86.44997 -332.1435,214.93914 -14.8807,51.04305 -10.4194,124.798135 10.1896,168.457105 l 7.3526,15.576028 33.2649,-13.778578 c 18.2957,-7.578179 49.4362,-16.810927 69.2011,-20.517187 z m 844.3453,-2448.073048 0,-789.1827 1377.6748,0 1377.6748,0 0,789.1827 0,789.1828 -1377.6748,0 -1377.6748,0 0,-789.1828 z m 2594.1876,0 0,-646.5316 -1216.5128,0 -1216.5128,0 0,646.5316 0,646.5317 1216.5128,0 1216.5128,0 0,-646.5317 z m -2355.044,0 0,-572.9052 1135.9318,0 1135.9318,0 0,572.9052 0,572.9053 -1135.9318,0 -1135.9318,0 0,-572.9053 z m 1143.1314,421.6428 c -23.0353,-15.9994 -116.0055,-67.8152 -176.1597,-98.1806 -137.5953,-69.4569 -337.9774,-151.4563 -514.6785,-210.6141 -71.1898,-23.8337 -277.9742,-87.539 -284.1474,-87.539 -0.9818,0 -1.7851,91.1126 -1.7851,202.4725 l 0,202.4726 494.5845,0 c 484.2035,0 494.3243,-0.1809 482.1862,-8.6114 z m 967.5703,-206.0854 0,-214.6967 -84.4801,2.8902 c -223.1482,7.6345 -537.9425,49.5161 -877.2929,116.7186 -84.3501,16.7042 -158.6275,31.3583 -165.061,32.5649 -6.4335,1.2065 -11.6899,3.5054 -11.681,5.1086 0.01,1.6031 27.2555,16.3746 60.5479,32.8255 118.1154,58.3647 272.7729,153.732 350.1389,215.908 l 28.5932,22.9792 349.6175,0.1993 349.6175,0.1992 0,-214.6968 z m -1027.7127,-229.0545 c 363.9341,-71.6536 702.6141,-117.1944 928.6316,-124.8688 41.6276,-1.4135 80.9503,-3.5131 87.3838,-4.6657 l 11.6973,-2.0956 0,-142.5635 0,-142.5634 -972.2406,0 -972.2406,0 1.3698,152.4505 1.3698,152.4504 122.1711,35.4204 c 134.2592,38.925 265.4317,82.0316 375.9264,123.5388 l 71.7982,26.971 117.957,-26.3836 c 64.8764,-14.511 166.6557,-35.9717 226.1762,-47.6905 z"
       style="fill:#3b3b3b" />
  </g>
</svg>
