<svg xmlns="http://www.w3.org/2000/svg" width="67.031" height="50" viewBox="0 0 67.031 50">
  <defs>
    <style>
      .cls-1 {
        fill: #3c3c3c;
        fill-rule: evenodd;
      }
    </style>
  </defs>
  <path id="Фигура_20" data-name="Фигура 20" class="cls-1" d="M252.373,5056.57a1.021,1.021,0,0,0-1.016,1.02v4.23a1.016,1.016,0,0,0,2.031,0v-4.23A1.02,1.02,0,0,0,252.373,5056.57Zm11.3,0a1.019,1.019,0,0,0-1.014,1.02v4.23a1.016,1.016,0,0,0,2.032,0v-4.23A1.022,1.022,0,0,0,263.675,5056.57Zm-28.257,16.93h-2.826a1.015,1.015,0,1,0,0,2.03h2.826A1.015,1.015,0,1,0,235.418,5073.5Zm36.734-39.5h-47.64v50h67.025v-50H272.152Zm-30.685,36.29v11.68H226.543v-12.08h14.924v0.4Zm0-11.29v8.86h-6.446v-6.04a1.016,1.016,0,0,0-2.032,0v6.04h-2.207v-6.04a1.016,1.016,0,0,0-2.031,0v6.04h-2.208v-9.26h14.924v0.4Zm-10.685-2.43v-3.61h6.446v3.61h-6.446Zm10.685-8.86v8.86H239.26v-5.64H228.751v5.64h-2.208v-9.26h14.924v0.4Zm-10.685-4.94c0-1.36,1.476-2.51,3.223-2.51s3.223,1.15,3.223,2.51-1.476,2.51-3.223,2.51S230.782,5044.13,230.782,5042.77Zm10.685-6.35v8.86h-3.026l0.321-.58a4.021,4.021,0,0,0,.5-1.93c0-2.5-2.358-4.54-5.255-4.54s-5.254,2.04-5.254,4.54a4.01,4.01,0,0,0,.5,1.93l0.32,0.58h-3.026v-9.25h14.924v0.39Zm15.542,0v45.55H243.5v-45.94h13.511v0.39Zm15.541,0v45.55H259.04v-45.94h13.51v0.39Zm16.955,33.87v11.68H274.582v-12.08h14.923v0.4Zm-10.684-2.43v-3.62h6.445v3.62h-6.445Zm10.684-8.86v8.86H287.3v-5.64h-10.51v5.64h-2.206v-9.26h14.923v0.4Zm-10.684-4.94c0-1.36,1.476-2.51,3.224-2.51s3.221,1.15,3.221,2.51-1.475,2.51-3.221,2.51S278.821,5055.42,278.821,5054.06Zm10.684-6.35v8.86H286.48l0.32-.58a4.01,4.01,0,0,0,.5-1.93c0-2.51-2.356-4.54-5.253-4.54s-5.257,2.03-5.257,4.54a4.011,4.011,0,0,0,.5,1.93l0.318,0.58h-3.023v-9.26h14.923v0.4Zm0-11.68v9.25H287.3v-6.04a1.015,1.015,0,0,0-2.03,0v6.04H283.06v-6.04a1.016,1.016,0,0,0-2.031,0v6.04h-6.447v-9.25h14.923Zm-6.048,37.47H280.63a1.015,1.015,0,0,0,0,2.03h2.827A1.015,1.015,0,0,0,283.457,5073.5Z" transform="translate(-224.5 -5034)"/>
</svg>
