<svg xmlns="http://www.w3.org/2000/svg" width="66.031" height="57.71" viewBox="0 0 66.031 57.71">
  <defs>
    <style>
      .cls-1 {
        fill: #3c3c3c;
        fill-rule: evenodd;
      }
    </style>
  </defs>
  <path id="Фигура_21" data-name="Фигура 21" class="cls-1" d="M541.631,5064.14v-11.81h-1.4a16.075,16.075,0,0,0-11.068,4.44h-1.832v-1.11h1.1a1.11,1.11,0,0,0,0-2.22h-11a1.11,1.11,0,0,0,0,2.22h1.1v1.11h-5.153a10.33,10.33,0,0,0,.752-4.44,7.483,7.483,0,0,0-.773-3.86c-0.129-.27-0.275-0.59-0.43-0.99l-0.28-.7H509.72v-2.87l1.875-1.89a1.117,1.117,0,0,0,0-1.57,1.079,1.079,0,0,0-1.553,0l-0.322.32v-1.92a4.413,4.413,0,0,0,3.3-4.28v-2.21h-3.3v-2.23h-5.5v5.55a4.413,4.413,0,0,0,3.3,4.28v3.03l-0.321-.32a1.1,1.1,0,0,0-1.553,0,1.115,1.115,0,0,0,0,1.57l1.874,1.89v0.65H504.6l-0.279.7c-0.156.4-.3,0.72-0.431,0.99a7.483,7.483,0,0,0-.773,3.86,10.312,10.312,0,0,0,.753,4.44h-5.153v-1.11h1.1a1.11,1.11,0,0,0,0-2.22h-11a1.11,1.11,0,0,0,0,2.22h1.094v1.11h-1.832a16.073,16.073,0,0,0-11.067-4.44h-1.4v11.81a5.921,5.921,0,0,0,5.212,5.88l-4.079,16.45a1.115,1.115,0,0,0,.8,1.35,0.836,0.836,0,0,0,.269.04,1.1,1.1,0,0,0,1.064-.85l3.943-15.9,4.944,15.97a1.106,1.106,0,0,0,1.054.78,0.944,0.944,0,0,0,.327-0.06,1.109,1.109,0,0,0,.719-1.39l-5.055-16.31h8.409v-1.42a16.476,16.476,0,0,0-.871-5.25h9.671v4.44h3.306v8.89a8.85,8.85,0,0,1-8.808,8.87h-4.4a1.115,1.115,0,0,0,0,2.23h33.012a1.115,1.115,0,0,0,0-2.23h-4.4a8.849,8.849,0,0,1-8.807-8.87v-8.89h3.305v-4.44h9.671a16.476,16.476,0,0,0-.87,5.25v1.42h7.393l-4.056,16.37a1.109,1.109,0,0,0,.8,1.35,0.818,0.818,0,0,0,.268.04,1.1,1.1,0,0,0,1.065-.85l3.938-15.9,4.949,15.97a1.106,1.106,0,0,0,1.047.78,0.982,0.982,0,0,0,.334-0.06,1.111,1.111,0,0,0,.72-1.39l-5.057-16.31h0.3a5.944,5.944,0,0,0,5.906-5.96h0Zm-20.907-8.48h4.4v1.11h-4.4v-1.11Zm-9.9-21.09a2.239,2.239,0,0,1-1.1,1.93v-1.93h1.1Zm-4.407,1.11v-3.32h1.1v5.25a2.253,2.253,0,0,1-1.1-1.93h0Zm-1.1,16.65a5.347,5.347,0,0,1,.564-2.92c0.059-.13.123-0.26,0.187-0.4h5.095c0.063,0.14.128,0.27,0.187,0.4a5.347,5.347,0,0,1,.564,2.92c0,4.44-1.032,4.44-3.3,4.44s-3.3,0-3.3-4.44h0Zm-13.208,3.33h4.4v1.11h-4.4v-1.11Zm-10.6,12.21a3.718,3.718,0,0,1-3.7-3.73v-9.56a13.972,13.972,0,0,1,10.676,6.01,14.911,14.911,0,0,1,1.236,2.2l0.119,0.26a14.107,14.107,0,0,1,1.15,4.82h-9.479Zm31.507-2.21h-3.3v11.1a11.1,11.1,0,0,0,4.406,8.87H503.111a11.1,11.1,0,0,0,4.405-8.87v-11.1h-3.3v-2.23h8.8v2.23Zm12.811-4.45H491.408a0.181,0.181,0,0,0-.026-0.04c-0.13-.26-0.274-0.51-0.42-0.76-0.113-.2-0.225-0.39-0.349-0.58-0.113-.17-0.231-0.35-0.355-0.53-0.069-.1-0.134-0.21-0.2-0.31h37.128c-0.076.1-.135,0.21-0.209,0.31l-0.349.53c-0.124.19-.237,0.38-0.35,0.58-0.146.25-.29,0.5-0.425,0.76l-0.02.04h0Zm1.568,1.84,0.118-.26a14.39,14.39,0,0,1,1.237-2.2,13.97,13.97,0,0,1,10.675-6.01v9.56a3.718,3.718,0,0,1-3.7,3.73h-9.478a14.083,14.083,0,0,1,1.15-4.82h0Zm0,0" transform="translate(-475.594 -5030.13)"/>
</svg>
