<svg xmlns="http://www.w3.org/2000/svg" width="50" height="49" viewBox="0 0 50 49">
  <defs>
    <style>
      .cls-1 {
        fill: #3c3c3c;
        fill-rule: evenodd;
      }
    </style>
  </defs>
  <path id="Фигура_24" data-name="Фигура 24" class="cls-1" d="M778.6,5070.83V5048.5h4.119v-4.32H739.85V5039h-4.306v38.73a2.309,2.309,0,0,0-2.761,2.86,2.333,2.333,0,0,0,1.155,1.44,54.872,54.872,0,0,0,14.025,4.91,51.089,51.089,0,0,0,10.213,1.06,46.727,46.727,0,0,0,5.695-.35,45.406,45.406,0,0,0,16.945-5.63,2.308,2.308,0,0,0-2.214-4.05v-7.14h0ZM739.85,5048.5H743.3v13.86h-1.19a3.7,3.7,0,0,0-2.255.76V5048.5Zm3.445,15.38v1.57h-3.337a2.259,2.259,0,0,1,2.147-1.57h1.19Zm-6.239-23.36h1.282v24.93h-1.282v-24.93Zm0,26.45H777.09v3.86H737.056v-3.86Zm7.75-1.52V5048.5h1.282v16.95h-1.282Zm6.239-1.57v1.57H747.6v-1.57h3.445Zm-3.445-1.52V5048.5h3.445v13.86H747.6Zm4.957,3.09V5048.5h1.282v16.95h-1.282Zm6.238-1.57v1.57H755.35v-1.57H758.8Zm-3.445-1.52V5048.5H758.8v13.86H755.35Zm4.957,3.09V5048.5h1.282v16.95h-1.282Zm6.239-1.57v1.57H763.1v-1.57h3.445Zm-3.445-1.52V5048.5h3.445v13.86H763.1Zm4.956,3.09V5048.5h1.282v16.95h-1.282Zm3.984-1.57a2.26,2.26,0,0,1,2.147,1.57h-3.337v-1.57h1.19Zm-1.19-1.52V5048.5H774.3v14.62a3.7,3.7,0,0,0-2.255-.76h-1.19Zm4.957,3.09V5048.5h1.282v16.95h-1.282Zm1.282,6.9v6.44c-0.425.22-.853,0.43-1.282,0.64v-7.08h1.282Zm-2.794,0v7.77a41.865,41.865,0,0,1-25.306,2.32,51.592,51.592,0,0,1-9.14-2.77v-7.32H774.3Zm-37.24,0h1.282v6.67q-0.7-.315-1.282-0.6v-6.07Zm42.239,6.97a0.791,0.791,0,0,1,1.151.89,0.794,0.794,0,0,1-.373.49,44.029,44.029,0,0,1-16.385,5.45,45.75,45.75,0,0,1-5.512.33,48.838,48.838,0,0,1-9.911-1.03,52.941,52.941,0,0,1-13.629-4.77,0.794,0.794,0,0,1-.307-1.12,0.8,0.8,0,0,1,.676-0.38,0.777,0.777,0,0,1,.36.09,51.584,51.584,0,0,0,13.326,4.65,48.035,48.035,0,0,0,9.564.99A42.041,42.041,0,0,0,779.3,5079.32Zm-5-32.33H739.85v-1.29h41.359v1.29H774.3Zm-18.746,21.36h17.675v1.52H755.55v-1.52Zm18.482,0h1.512v1.52h-1.512v-1.52Z" transform="translate(-732.719 -5039)"/>
</svg>
