<svg xmlns="http://www.w3.org/2000/svg" width="31.997" height="58" viewBox="0 0 31.997 58">
  <defs>
    <style>
      .cls-1 {
        fill: #3c3c3c;
        fill-rule: evenodd;
      }
    </style>
  </defs>
  <path id="Фигура_23" data-name="Фигура 23" class="cls-1" d="M1027.34,5042.55a2.5,2.5,0,0,0-.88,4.82,7.439,7.439,0,0,1-7.37,6.78h-2.9v-13.83h2.9a9.161,9.161,0,0,0,9.08-8.48,2.462,2.462,0,1,0-1.71-.02,7.439,7.439,0,0,1-7.37,6.78h-2.9v-7.47a2.387,2.387,0,0,0-.72-1.73,2.374,2.374,0,0,0-3.64.38,2.409,2.409,0,0,0-.41,1.35v7.47h-2.9a7.423,7.423,0,0,1-7.36-6.78,2.475,2.475,0,1,0-1.713.02,9.151,9.151,0,0,0,9.073,8.48h2.9v13.83h-2.9a7.423,7.423,0,0,1-7.36-6.78,2.475,2.475,0,1,0-1.713.02,9.151,9.151,0,0,0,9.073,8.48h2.9v20.63h-4.22v3.39h-3.99V5085h21.19v-5.11h-3.99v-3.39h-4.22v-20.63h2.9a9.161,9.161,0,0,0,9.08-8.48A2.5,2.5,0,0,0,1027.34,5042.55Zm0-13.83a0.77,0.77,0,0,1,0,1.54A0.77,0.77,0,0,1,1027.34,5028.72Zm-27.07,1.54a0.77,0.77,0,1,1,.76-0.77A0.765,0.765,0,0,1,1000.27,5030.26Zm0,15.55a0.77,0.77,0,1,1,.76-0.77A0.765,0.765,0,0,1,1000.27,5045.81Zm12.86-5.49h0.68v-1.72h-0.68v-7.47a0.7,0.7,0,0,1,.11-0.38,0.694,0.694,0,0,1,.57-0.31,0.668,0.668,0,0,1,.47.2,0.689,0.689,0,0,1,.21.49v23.02h-0.68v1.72h0.68v20.63h-1.36v-36.18h0Zm9.56,41.29v1.67h-17.77v-1.67h17.77Zm-3.98-3.39v1.67h-9.8v-1.67h9.8Zm8.63-32.41a0.77,0.77,0,0,1,0-1.54A0.77,0.77,0,0,1,1027.34,5045.81Z" transform="translate(-997.813 -5027)"/>
</svg>
