<svg xmlns="http://www.w3.org/2000/svg" width="55.031" height="55" viewBox="0 0 55.031 55">
  <defs>
    <style>
      .cls-1 {
        fill: #3c3c3c;
        fill-rule: evenodd;
      }
    </style>
  </defs>
  <path id="Фигура_25" data-name="Фигура 25" class="cls-1" d="M262.751,5189.46H241.293v31.9h21.458v-31.9Zm-1.634,30.27h-18.19V5191.1h18.19v28.63Zm2.433,9.9h3.5v1.64h-3.5v-1.64Zm-9.945,4.83h22.948v-8.02H253.605v8.02Zm1.635-6.38h19.679v4.74H255.24v-4.74Zm10.877-4.89V5186h-28.19v37.19H224.512v14.52h4.2V5241h4.574v-3.29h37.471V5241h4.573v-3.29h4.2v-14.52H266.117Zm-38.626,12.89h-1.345v-11.25h1.345v11.25Zm4.162,3.29h-1.306v-1.66h1.306v1.66Zm2.2-3.29h-2.1v-5.69h2.1v5.69Zm0-7.32h-2.1v-1.19h2.1v1.19Zm4.044,7.32h-2.285v-6.06H237.9v6.06Zm0-7.69h-2.285v-1.33H237.9v1.33Zm3.844,7.69h-2.1v-8.51h2.1v8.51Zm1.634,0v-5.75l1.444,5.75h-1.444Zm3.024-.42-2.072-8.25,2.033-.51,2.072,8.25Zm3.679-.67-2.531-10.07-4.172,1.04v-0.02h-3.844v-0.52h-5.553v0.52h-3.855v10.14h-1v-11.25h20.953v10.16h0Zm-10.516-11.8v-35.56h24.921v35.56H239.562Zm34.135,16.18h-1.305v-1.66H273.7v1.66Zm4.2-3.29H251.712v-11.25H277.9v11.25Zm-19.584-40.49h1.634v-3.34h-6.166v1.63h4.532v1.71Zm0,1.13h1.634v1.5h-1.634v-1.5Zm-7.484,20.04H246.3v-1.72h-1.634v3.35h6.166v-1.63Zm-6.166-4.35H246.3v1.51h-1.634v-1.51Zm6.52-14.64,1.367,0.9-4.87,7.43-1.367-.9Zm-3.314,13.17,7.5-11.45,1.367,0.9-7.5,11.45Zm6.411,1.32-1.367-.9,3.743-5.71,1.367,0.9Zm13.28,17.39H269.2v1.6h-1.634v-1.6Z" transform="translate(-224.5 -5186)"/>
</svg>
