<svg xmlns="http://www.w3.org/2000/svg" width="36" height="55" viewBox="0 0 36 55">
  <defs>
    <style>
      .cls-1 {
        fill: #3c3c3c;
        fill-rule: evenodd;
      }
    </style>
  </defs>
  <path id="Фигура_30" data-name="Фигура 30" class="cls-1" d="M912.239,5772.96a3.926,3.926,0,0,0,3.916-3.93v-16.1a3.926,3.926,0,0,0-3.916-3.93H884.087a3.926,3.926,0,0,0-3.916,3.93v16.1a3.926,3.926,0,0,0,3.916,3.93h0.027v2.69h-0.027a3.926,3.926,0,0,0-3.916,3.93v16.1a3.926,3.926,0,0,0,3.916,3.93h0.027V5804h5.423v-4.39h17.252V5804h5.423v-4.39h0.027a3.926,3.926,0,0,0,3.916-3.93v-16.1a3.926,3.926,0,0,0-3.916-3.93h-0.027v-2.69h0.027Zm-24.33,29.4h-2.167v-2.62h2.167v2.62Zm22.675,0h-2.167v-2.62h2.167v2.62Zm1.655-25.08a2.3,2.3,0,0,1,2.288,2.3v16.1a2.3,2.3,0,0,1-2.288,2.3H884.087a2.3,2.3,0,0,1-2.288-2.3v-16.1a2.3,2.3,0,0,1,2.288-2.3h28.152Zm-26.5-1.63v-2.63h2.167v2.63h-2.167Zm3.8,0v-2.69h17.252v2.69H889.537Zm18.88,0v-2.63h2.167v2.63h-2.167Zm-24.33-4.32a2.3,2.3,0,0,1-2.288-2.3v-16.1a2.3,2.3,0,0,1,2.288-2.3h28.152a2.3,2.3,0,0,1,2.288,2.3v16.1a2.3,2.3,0,0,1-2.288,2.3H884.087Zm0.256-2.24h27.64v-16.22h-27.64v16.22Zm6.906-1.64h-2.387v-6.27h2.387v6.27Zm0-7.9h-2.387v-1.42h2.387v1.42Zm10.985,7.9h-6.253v-2.39h6.253v2.39Zm-4.188-4.02v-2.4H904.3v2.4h-6.254Zm7.224,4.02h-1.408v-2.39h1.408v2.39Zm0.658-4.02v-2.4h1.408v2.4h-1.408Zm-19.957-8.92h24.384v12.94H906.9v-2.39h2.066v-5.66H896.418v4.03h-2.065v4.02h-1.476V5756.5h-5.644v10.95h-1.262v-12.94h0Zm-1.628,41.23h27.64v-16.22h-27.64v16.22Zm8.831-1.63h-3.86v-3.88h3.86v3.88Zm7.664-.37-2.359-.36,0.957-6.21,2.359,0.37Zm1.207-7.81-2.359-.37,0.215-1.4,2.359,0.37Zm0.907,8.18h-0.523l0.523-3.39v3.39Zm4.015,0H904.58v-6.28h2.387v6.28Zm0-7.91H904.58v-1.42h2.387v1.42Zm-21-5.04h24.384v12.95H908.6v-10.96h-4.583l-5.47-.85-1.824,11.81H894.8v-5.51h-2.744v-0.73l1.963-1.97-1.151-1.16-0.812.82v-3.15H890.43v1.09l-0.812-.81-1.151,1.15,1.963,1.97v2.79h-2.744v5.51h-1.715v-12.95h0Z" transform="translate(-880.156 -5749)"/>
</svg>
