<svg xmlns="http://www.w3.org/2000/svg" width="45" height="56" viewBox="0 0 45 56">
  <defs>
    <style>
      .cls-1 {
        fill: #3c3c3c;
        fill-rule: evenodd;
      }
    </style>
  </defs>
  <path id="Фигура_29" data-name="Фигура 29" class="cls-1" d="M641.706,5756.52h-1.633v0.81h-0.814v1.63h0.814v0.81h1.633v-0.81h0.815v-1.63h-0.815v-0.81Zm10.128,3.25h1.634v-0.81h0.814v-1.63h-0.814v-0.81h-1.634v0.81H651.02v1.63h0.814v0.81Zm-10.128,6.15h-1.633v0.81h-0.814v1.63h0.814v0.82h1.633v-0.82h0.815v-1.63h-0.815v-0.81Zm10.128,3.26h1.634v-0.82h0.814v-1.63h-0.814v-0.81h-1.634v0.81H651.02v1.63h0.814v0.82Zm-5.063,3.23h8.737v1.63h-8.737v-1.63Zm9.608,0h1.633v1.63h-1.633v-1.63Zm-10.621,9.16h11v1.63h-11v-1.63Zm11.867,0h1.633v1.63h-1.633v-1.63Zm4.187-14.45v12.52a3.5,3.5,0,0,0-2.345-.9H649.233v-2.04h7.187a5.2,5.2,0,0,0,5.168-5.67l-1.568-16.66a5.91,5.91,0,0,0-5.913-5.37H639.869a5.909,5.909,0,0,0-5.913,5.37l-1.568,16.66a5.2,5.2,0,0,0,5.168,5.67h6.752v2.04H634.075a3.5,3.5,0,0,0-2.328.89v-12.51H624.29v4.92h2.532v7.46a4.11,4.11,0,0,0,3.978,4.1,3.527,3.527,0,0,0,3.275,2.23h10.246v3.74H642.2a9.738,9.738,0,0,0-9.732,9.32,3.424,3.424,0,1,0,4.888.7v-0.29a4.847,4.847,0,0,1,4.844-4.84h2.126v4.73a3.424,3.424,0,1,0,4.9,0v-4.73h2.125a4.849,4.849,0,0,1,4.842,4.74,3.378,3.378,0,0,0-.972,2.38,3.424,3.424,0,1,0,5.873-2.39,9.748,9.748,0,0,0-9.743-9.62H649.22v-3.74h10.247a3.527,3.527,0,0,0,3.275-2.23,4.112,4.112,0,0,0,4-4.1v-7.46h2.532v-4.92h-7.457Zm-31.7,14.71a2.481,2.481,0,0,1-1.659-2.33v-9.1h-2.532v-1.65h4.191v13.08h0Zm7.442-6.77a3.552,3.552,0,0,1-3.542-3.88l1.568-16.65a4.281,4.281,0,0,1,4.287-3.9h14.238a4.281,4.281,0,0,1,4.287,3.9l1.568,16.65a3.552,3.552,0,0,1-3.542,3.88H637.556Zm10.044,1.64v2.04h-1.659v-2.04H647.6Zm-13.029,26.67a1.79,1.79,0,1,1,1.791-1.79A1.79,1.79,0,0,1,634.571,5803.37Zm12.2,0h0a1.791,1.791,0,0,1-1.791-1.79c0-.02,0-0.05,0-0.07l0-.06c0-.03,0-0.06.008-0.09l0.009-.06c0.008-.05.017-0.09,0.028-0.14a0.371,0.371,0,0,0,.012-0.05c0.014-.05.031-0.1,0.05-0.15l0.011-.03c0.012-.03.025-0.06,0.038-0.09,0-.01.006-0.01,0.009-0.02a1.1,1.1,0,0,1,.087-0.16c0-.01.008-0.01,0.012-0.02a1.863,1.863,0,0,1,.183-0.25h0c0.046-.05.095-0.1,0.146-0.15h0a1.788,1.788,0,0,1,2.207-.13h0c0.035,0.03.069,0.05,0.1,0.08a0.049,0.049,0,0,0,.028.02,1.9,1.9,0,0,1,.219.22,0.226,0.226,0,0,1,.013.02,0.96,0.96,0,0,1,.1.13h0A1.789,1.789,0,0,1,646.77,5803.37Zm-0.816-5.11v-3.8h1.633v3.8A3.383,3.383,0,0,0,645.954,5798.26Zm14.476,3.32a1.791,1.791,0,1,1-1.791-1.79A1.79,1.79,0,0,1,660.43,5801.58Zm-9.085-10.38a8.112,8.112,0,0,1,8.04,7.04,3.658,3.658,0,0,0-.746-0.08,3.325,3.325,0,0,0-.9.12,6.488,6.488,0,0,0-6.4-5.45H642.2a6.484,6.484,0,0,0-6.411,5.55,3.481,3.481,0,0,0-1.213-.22,2.747,2.747,0,0,0-.407.03,8.143,8.143,0,0,1,8.031-6.99h9.15Zm-5.391-1.63v-3.74h1.633v3.74h-1.633Zm15.4-7.25a1.882,1.882,0,0,1-1.884,1.88H634.075a1.882,1.882,0,0,1-1.884-1.88v-0.07a1.888,1.888,0,0,1,1.884-1.88h25.392a1.888,1.888,0,0,1,1.884,1.88v0.07h0Zm6.285-11.92H665.1v9.1a2.481,2.481,0,0,1-1.659,2.33v-13.08h4.191v1.65Z" transform="translate(-624.281 -5749)"/>
</svg>
