<svg xmlns="http://www.w3.org/2000/svg" width="80" height="80" viewBox="0 0 80 80">
  <defs>
    <style>
      .cls-1 {
        fill: #324ea7;
        fill-rule: evenodd;
      }
    </style>
  </defs>
  <path id="Фигура_11" data-name="Фигура 11" class="cls-1" d="M290.548,894.351a15.836,15.836,0,0,0-5.161,1.606V884.03A9.044,9.044,0,0,0,276.355,875h-38.71a9.044,9.044,0,0,0-9.032,9.031v11.927a15.836,15.836,0,0,0-5.161-1.606,6.452,6.452,0,0,0-1.291,12.774V955H229.9V943.384H284.1V955h7.742V907.125A6.452,6.452,0,0,0,290.548,894.351ZM231.194,927.9v-6.452a1.291,1.291,0,0,1,1.29-1.291h21.935a1.292,1.292,0,0,1,1.291,1.291V927.9a1.291,1.291,0,0,1-1.291,1.29H232.484A1.291,1.291,0,0,1,231.194,927.9Zm27.1,0v-6.452a1.292,1.292,0,0,1,1.291-1.291h21.935a1.291,1.291,0,0,1,1.29,1.291V927.9a1.291,1.291,0,0,1-1.29,1.29H259.581A1.291,1.291,0,0,1,258.29,927.9Zm-27.1-43.871a6.458,6.458,0,0,1,6.451-6.451h38.71a6.458,6.458,0,0,1,6.451,6.451v33.786a3.814,3.814,0,0,0-1.29-.238H259.581A3.851,3.851,0,0,0,257,918.584a3.848,3.848,0,0,0-2.581-1.006H232.484a3.814,3.814,0,0,0-1.29.238V884.03Zm-3.871,68.388h-2.581v-9.034h2.581v9.034Zm61.935,0h-2.581v-9.034h2.581v9.034Zm1.29-47.743h-1.29V940.8H224.742V904.675h-1.29a3.871,3.871,0,0,1,0-7.742,16.415,16.415,0,0,1,5.161,1.928v32.911h56.774V898.861a16.415,16.415,0,0,1,5.161-1.928A3.871,3.871,0,1,1,290.548,904.675ZM236.355,884.03a1.291,1.291,0,1,1-1.291,1.291A1.291,1.291,0,0,1,236.355,884.03Zm10.322,0a1.291,1.291,0,1,1-1.29,1.291A1.292,1.292,0,0,1,246.677,884.03Zm10.323,0a1.291,1.291,0,1,1-1.29,1.291A1.291,1.291,0,0,1,257,884.03Zm10.323,0a1.291,1.291,0,1,1-1.291,1.291A1.291,1.291,0,0,1,267.323,884.03Zm10.322,0a1.291,1.291,0,1,1-1.29,1.291A1.291,1.291,0,0,1,277.645,884.03Zm-36.129,7.743a1.291,1.291,0,1,1-1.29,1.291A1.29,1.29,0,0,1,241.516,891.773Zm10.323,0a1.291,1.291,0,1,1-1.291,1.291A1.29,1.29,0,0,1,251.839,891.773Zm10.322,0a1.291,1.291,0,1,1-1.29,1.291A1.29,1.29,0,0,1,262.161,891.773Zm10.323,0a1.291,1.291,0,1,1-1.29,1.291A1.29,1.29,0,0,1,272.484,891.773Zm-36.129,7.742a1.29,1.29,0,1,1-1.291,1.291A1.29,1.29,0,0,1,236.355,899.515Zm10.322,0a1.29,1.29,0,1,1-1.29,1.291A1.29,1.29,0,0,1,246.677,899.515Zm10.323,0a1.29,1.29,0,1,1-1.29,1.291A1.29,1.29,0,0,1,257,899.515Zm10.323,0a1.29,1.29,0,1,1-1.291,1.291A1.29,1.29,0,0,1,267.323,899.515Zm10.322,0a1.29,1.29,0,1,1-1.29,1.291A1.29,1.29,0,0,1,277.645,899.515Zm-36.129,7.741a1.291,1.291,0,1,1-1.29,1.292A1.29,1.29,0,0,1,241.516,907.256Zm10.323,0a1.291,1.291,0,1,1-1.291,1.292A1.291,1.291,0,0,1,251.839,907.256Zm10.322,0a1.291,1.291,0,1,1-1.29,1.292A1.291,1.291,0,0,1,262.161,907.256Zm10.323,0a1.291,1.291,0,1,1-1.29,1.292A1.291,1.291,0,0,1,272.484,907.256Z" transform="translate(-217 -875)"/>
</svg>
