<svg xmlns="http://www.w3.org/2000/svg" width="81" height="80" viewBox="0 0 81 80">
  <defs>
    <style>
      .cls-1 {
        fill: #324ea7;
        fill-rule: evenodd;
      }
    </style>
  </defs>
  <path id="Фигура_12_копия" data-name="Фигура 12 копия" class="cls-1" d="M615.765,889.064h28.47v2.58h-28.47v-2.58Zm0,5.161h28.47v2.58h-28.47v-2.58Zm34.941,15.842v-8.746a3.234,3.234,0,0,0-3.235-3.226,3.152,3.152,0,0,0-.976.167l-3.259-23.916A3.9,3.9,0,0,0,639.388,871H620.612a3.9,3.9,0,0,0-3.848,3.348l-3.271,23.912a3.169,3.169,0,0,0-.964-0.164,3.234,3.234,0,0,0-3.235,3.226v8.746A2.572,2.572,0,0,0,608,912.29a6.468,6.468,0,0,0,6.471,6.451h10.352V923.9h1.3v11.612h-2.589v3.871h-5.176a3.872,3.872,0,1,0,3.882,3.871,3.814,3.814,0,0,0-.238-1.29h6.709v1.528a3.882,3.882,0,1,0,2.588,0v-1.528H638a3.814,3.814,0,0,0-.238,1.29,3.882,3.882,0,1,0,3.882-3.871h-5.176v-3.871h-2.589V923.9h1.294v-5.161h10.353A6.468,6.468,0,0,0,652,912.29,2.572,2.572,0,0,0,650.706,910.067Zm-31.059,33.189a1.294,1.294,0,1,1-1.294-1.29A1.294,1.294,0,0,1,619.647,943.256ZM630,948.418a1.291,1.291,0,1,1,1.294-1.29A1.293,1.293,0,0,1,630,948.418Zm12.941-5.162a1.294,1.294,0,1,1-1.294-1.29A1.294,1.294,0,0,1,642.941,943.256Zm4.53-42.58a0.648,0.648,0,0,1,.647.645v8.387h-1.294v-8.387A0.648,0.648,0,0,1,647.471,900.676Zm-31.706.086L619.33,874.7a1.3,1.3,0,0,1,1.282-1.116h18.776a1.3,1.3,0,0,1,1.282,1.115l3.565,26.068v8.946h-28.47v-8.946Zm-3.883.559a0.647,0.647,0,0,1,1.294,0v8.387h-1.294v-8.387Zm22,38.064h-7.764V938.1h7.764v1.29Zm-2.588-3.871h-2.588V923.9h2.588v11.612Zm1.294-14.193h-5.176v-2.58h5.176v2.58Zm12.941-5.161H614.471a3.882,3.882,0,0,1-3.883-3.87h38.824A3.882,3.882,0,0,1,645.529,916.16Zm-10.353-40h2.589v2.58h-2.589v-2.58Zm-7.764,0h5.176v2.58h-5.176v-2.58Zm-50.941,17.71h20.058v1.838H576.471V893.87Zm0,3.677h20.058v1.839H576.471v-1.839Zm24.617,11.288V902.6a2.289,2.289,0,0,0-2.279-2.3,2.207,2.207,0,0,0-.688.118l-2.295-17.041A2.757,2.757,0,0,0,593.114,881H579.886a2.756,2.756,0,0,0-2.712,2.385l-2.3,17.038a2.213,2.213,0,0,0-.679-0.116,2.289,2.289,0,0,0-2.279,2.3v6.232a1.835,1.835,0,0,0-.912,1.584,4.583,4.583,0,0,0,4.559,4.6h7.294v3.677h0.912v8.274h-1.824v2.758h-3.647a2.791,2.791,0,1,0,2.568,1.839h4.726v1.089a2.735,2.735,0,1,0,1.824,0v-1.089h4.726a2.726,2.726,0,1,0,2.568-1.839h-3.647v-2.758h-1.824v-8.274h0.912v-3.677h7.294a4.583,4.583,0,0,0,4.559-4.6A1.835,1.835,0,0,0,601.088,908.835Zm-21.882,23.647a0.912,0.912,0,1,1-.912-0.919A0.917,0.917,0,0,1,579.206,932.482Zm7.294,3.678a0.92,0.92,0,1,1,.912-0.92A0.917,0.917,0,0,1,586.5,936.16Zm9.118-3.678a0.912,0.912,0,1,1-.912-0.919A0.917,0.917,0,0,1,595.618,932.482Zm3.191-30.338a0.459,0.459,0,0,1,.456.459v5.977h-0.912V902.6A0.459,0.459,0,0,1,598.809,902.144Zm-22.338.061,2.511-18.572a0.919,0.919,0,0,1,.9-0.8h13.228a0.917,0.917,0,0,1,.9.795l2.512,18.573v6.375H576.471v-6.375Zm-2.736.4a0.456,0.456,0,1,1,.912,0v5.977h-0.912V902.6Zm15.5,27.121h-5.47v-0.919h5.47v0.919Zm-1.823-2.758h-1.824v-8.274h1.824v8.274Zm0.912-10.112h-3.648v-1.839h3.648v1.839Zm9.117-3.678H575.559a2.75,2.75,0,0,1-2.736-2.757h27.353A2.749,2.749,0,0,1,597.441,913.176Z" transform="translate(-571 -871)"/>
</svg>
