<?xml version="1.0" encoding="UTF-8" standalone="no"?>
<svg
   xmlns:dc="http://purl.org/dc/elements/1.1/"
   xmlns:cc="http://creativecommons.org/ns#"
   xmlns:rdf="http://www.w3.org/1999/02/22-rdf-syntax-ns#"
   xmlns:svg="http://www.w3.org/2000/svg"
   xmlns="http://www.w3.org/2000/svg"
   xmlns:sodipodi="http://sodipodi.sourceforge.net/DTD/sodipodi-0.dtd"
   xmlns:inkscape="http://www.inkscape.org/namespaces/inkscape"
   width="13.010255"
   height="16.013"
   viewBox="0 0 13.010255 16.013"
   id="svg2"
   version="1.1"
   inkscape:version="0.91 r13725"
   sodipodi:docname="lartb.svg">
  <metadata
     id="metadata11">
    <rdf:RDF>
      <cc:Work
         rdf:about="">
        <dc:format>image/svg+xml</dc:format>
        <dc:type
           rdf:resource="http://purl.org/dc/dcmitype/StillImage" />
        <dc:title></dc:title>
      </cc:Work>
    </rdf:RDF>
  </metadata>
  <sodipodi:namedview
     pagecolor="#ffffff"
     bordercolor="#666666"
     borderopacity="1"
     objecttolerance="10"
     gridtolerance="10"
     guidetolerance="10"
     inkscape:pageopacity="0"
     inkscape:pageshadow="2"
     inkscape:window-width="1642"
     inkscape:window-height="897"
     id="namedview9"
     showgrid="false"
     fit-margin-top="0"
     fit-margin-left="0"
     fit-margin-right="0"
     fit-margin-bottom="0"
     inkscape:zoom="16.819899"
     inkscape:cx="27.1167"
     inkscape:cy="-1.0351528"
     inkscape:window-x="2150"
     inkscape:window-y="66"
     inkscape:window-maximized="0"
     inkscape:current-layer="svg2" />
  <defs
     id="defs4">
    <style
       id="style6">
      .cls-1 {
        fill: #324ea7;
        fill-rule: evenodd;
      }
    </style>
    <style
       id="style3343">
      .cls-1 {
        fill: #2f2f2f;
        fill-rule: evenodd;
      }
    </style>
    <style
       id="style3356">
      .cls-1 {
        fill: #2f2f2f;
        fill-rule: evenodd;
      }
    </style>
  </defs>
  <path
     id="Фигура_35_копия"
     data-name="Фигура 35 копия"
     class="cls-1"
     d="m 31.091369,14.49992 a 1.068,1.068 0 0 0 0.8,-0.349"
     inkscape:connector-curvature="0"
     style="fill:#324ea7;fill-rule:evenodd" />
  <path
     style="fill:#2f2f2f;fill-rule:evenodd"
     d="m 5.7000073,14.373001 0,-13.56000098 a 0.813,0.813 0 1 1 1.626,0 l 0,13.56000098 a 0.813,0.813 0 0 1 -1.626,0 z"
     id="Фигура_9"
     inkscape:connector-curvature="0" />
  <path
     style="fill:#2f2f2f;fill-rule:evenodd"
     d="m 7.3398796e-6,9.1930001 a 0.793,0.793 0 0 1 0.2420000001204,-0.57 0.827,0.827 0 0 1 1.14999996,0.01 l 5.113,5.1000009 5.1119997,-5.1000009 a 0.827,0.827 0 0 1 1.150001,-0.01 0.788,0.788 0 0 1 0.009,1.13 L 6.5050073,16.013001 0.23400734,9.7530001 a 0.779,0.779 0 0 1 -0.2340000001204,-0.56 z"
     id="path3374"
     inkscape:connector-curvature="0" />
</svg>
