<?xml version="1.0" encoding="utf-8"?>
<!-- Generator: Adobe Illustrator 19.2.1, SVG Export Plug-In . SVG Version: 6.00 Build 0)  -->
<svg version="1.1" id="Слой_1" xmlns="http://www.w3.org/2000/svg" xmlns:xlink="http://www.w3.org/1999/xlink" x="0px" y="0px"
	 viewBox="0 0 16 12.7" style="enable-background:new 0 0 16 12.7;" xml:space="preserve">
<style type="text/css">
	.st0{fill:#2F2F2F;}
</style>
<path id="Фигура_9" class="st0" d="M14.4,7.1H0.8C0.4,7.2,0,6.9-0.1,6.4c0-0.4,0.3-0.8,0.7-0.9c0.1,0,0.1,0,0.2,0h13.6
	c0.4,0,0.8,0.3,0.9,0.7c0,0.4-0.3,0.8-0.7,0.9C14.5,7.2,14.4,7.2,14.4,7.1z M9.2,12.7c-0.4,0-0.8-0.4-0.8-0.8c0-0.2,0.1-0.4,0.2-0.6
	l5.1-5l-5.1-5C8.3,1,8.3,0.5,8.6,0.2c0,0,0,0,0,0c0.3-0.3,0.8-0.3,1.1,0L16,6.4l-6.3,6.1C9.6,12.6,9.4,12.7,9.2,12.7L9.2,12.7z"/>
</svg>
