<svg xmlns="http://www.w3.org/2000/svg" width="15.375" height="22.406" viewBox="0 0 15.375 22.406">
  <defs>
    <style>
      .cls-1 {
        fill: #324ea7;
        fill-rule: evenodd;
      }
    </style>
  </defs>
  <path id="Фигура_10" data-name="Фигура 10" class="cls-1" d="M672,70.171l-0.518-.562c-0.294-.318-7.183-7.862-7.183-14.266a7.7,7.7,0,0,1,15.4,0c0,6.4-6.888,13.949-7.181,14.266Zm0-21.04a6.263,6.263,0,0,0-6.3,6.211c0,4.9,4.709,10.867,6.3,12.745,1.591-1.877,6.3-7.843,6.3-12.745A6.263,6.263,0,0,0,672,49.132Zm0,9.661a3.451,3.451,0,1,1,3.5-3.45A3.48,3.48,0,0,1,672,58.792Zm0-5.52a2.071,2.071,0,1,0,2.1,2.07A2.087,2.087,0,0,0,672,53.272Z" transform="translate(-664.313 -47.75)"/>
</svg>
