<svg xmlns="http://www.w3.org/2000/svg" width="141" height="4" viewBox="0 0 141 4"><path fill="#324ea7" d="M29.31 4c-1.22 0-1.84-.6-2.4-1.12-.49-.47-.88-.85-1.72-.85-.83 0-1.22.38-1.72.85C22.92 3.4 22.3 4 21.07 4c-1.21 0-1.84-.6-2.39-1.12-.49-.47-.88-.85-1.72-.85s-1.23.38-1.72.85C14.69 3.4 14.07 4 12.84 4c-1.22 0-1.84-.6-2.39-1.12-.5-.47-.89-.85-1.72-.85-.84 0-1.23.38-1.73.85C6.46 3.4 5.83 4 4.61 4c-1.22 0-1.84-.6-2.4-1.12-.49-.47-.88-.85-1.72-.85A.5.5 0 0 1 0 1.51.5.5 0 0 1 .5 1c1.22 0 1.84.6 2.39 1.12.5.47.88.84 1.72.84s1.23-.37 1.73-.84C6.88 1.59 7.5 1 8.73 1c1.22 0 1.84.6 2.4 1.12.49.47.88.84 1.71.84.84 0 1.23-.37 1.73-.84.55-.53 1.17-1.12 2.4-1.12 1.21 0 1.83.6 2.38 1.12.5.47.9.84 1.73.84.84 0 1.23-.37 1.72-.84.55-.53 1.17-1.12 2.4-1.12 1.22 0 1.84.6 2.39 1.12.5.47.89.84 1.72.84.84 0 1.23-.37 1.73-.84.53-.51 1.13-1.09 2.28-1.12a.47.47 0 0 1 .08 0 3.7 3.7 0 0 1 .07 0c1.15.03 1.75.6 2.28 1.12.5.47.89.84 1.73.84.83 0 1.22-.37 1.72-.84.55-.53 1.17-1.12 2.39-1.12 1.22 0 1.85.6 2.4 1.12.49.47.88.84 1.72.84s1.23-.37 1.72-.84C47.98 1.59 48.6 1 49.83 1c1.22 0 1.84.6 2.39 1.12.49.47.89.84 1.72.84.84 0 1.23-.37 1.73-.84.55-.53 1.17-1.12 2.39-1.12 1.22 0 1.84.6 2.39 1.12.5.47.89.84 1.73.84.83 0 1.23-.37 1.72-.84.53-.51 1.13-1.09 2.28-1.12a.47.47 0 0 1 .08 0 3.66 3.66 0 0 1 .07 0c1.16.03 1.76.6 2.29 1.12.49.47.88.84 1.72.84s1.23-.37 1.73-.84C72.61 1.59 73.24 1 74.46 1c1.22 0 1.84.6 2.39 1.12.5.47.89.84 1.72.84.84 0 1.23-.37 1.73-.84.55-.53 1.17-1.12 2.39-1.12 1.22 0 1.84.6 2.39 1.12.5.47.89.84 1.73.84.83 0 1.23-.37 1.72-.84C89.08 1.59 89.7 1 90.92 1c1.23 0 1.85.6 2.4 1.12.49.47.88.84 1.72.84s1.23-.37 1.73-.84c.52-.51 1.13-1.09 2.28-1.12a.47.47 0 0 1 .08 0 3.7 3.7 0 0 1 .07 0c1.15.03 1.75.6 2.28 1.12.5.47.89.84 1.73.84.83 0 1.22-.37 1.72-.84.55-.53 1.17-1.12 2.39-1.12 1.22 0 1.85.6 2.4 1.12.49.47.88.84 1.72.84s1.23-.37 1.72-.84c.55-.53 1.17-1.12 2.4-1.12 1.22 0 1.84.6 2.39 1.12.49.47.89.84 1.72.84.84 0 1.23-.37 1.73-.84.55-.53 1.17-1.12 2.39-1.12 1.22 0 1.84.6 2.39 1.12.5.47.89.84 1.73.84.83 0 1.22-.37 1.72-.84.55-.53 1.17-1.12 2.39-1.12a.5.5 0 0 1 .08 0h.17c1.22 0 1.84.6 2.39 1.12.5.47.89.84 1.73.84.83 0 1.23-.37 1.72-.84.55-.53 1.17-1.12 2.39-1.12.28 0 .5.23.5.51a.5.5 0 0 1-.5.52c-.83 0-1.22.38-1.72.85-.55.52-1.17 1.12-2.39 1.12-1.22 0-1.85-.6-2.4-1.12-.49-.47-.88-.85-1.72-.85h-.15a.5.5 0 0 1-.1 0c-.83 0-1.23.38-1.72.85-.55.52-1.17 1.12-2.39 1.12-1.23 0-1.85-.6-2.4-1.12-.49-.47-.88-.85-1.72-.85s-1.23.38-1.72.85c-.55.52-1.18 1.12-2.4 1.12s-1.84-.6-2.39-1.12c-.5-.47-.89-.85-1.72-.85-.84 0-1.23.38-1.73.85-.55.52-1.17 1.12-2.39 1.12-1.22 0-1.84-.6-2.39-1.12-.5-.47-.89-.85-1.73-.85-.83 0-1.23.38-1.72.85-.55.52-1.17 1.12-2.39 1.12-1.23 0-1.85-.6-2.4-1.12-.48-.47-.87-.84-1.68-.85-.82.01-1.2.38-1.7.85C96.89 3.4 96.26 4 95.04 4c-1.22 0-1.84-.6-2.39-1.12-.5-.47-.89-.85-1.73-.85-.83 0-1.22.38-1.72.85C88.65 3.4 88.03 4 86.81 4c-1.22 0-1.85-.6-2.4-1.12-.49-.47-.88-.85-1.72-.85s-1.23.38-1.72.85C80.42 3.4 79.8 4 78.57 4c-1.22 0-1.84-.6-2.39-1.12-.49-.47-.89-.85-1.72-.85-.84 0-1.23.38-1.73.85C72.19 3.4 71.56 4 70.34 4c-1.22 0-1.84-.6-2.39-1.12-.5-.47-.88-.84-1.7-.85-.8.01-1.19.38-1.68.85C64.02 3.4 63.4 4 62.18 4c-1.22 0-1.85-.6-2.4-1.12-.49-.47-.88-.85-1.72-.85s-1.23.38-1.72.85C55.79 3.4 55.16 4 53.94 4s-1.84-.6-2.39-1.12c-.5-.47-.89-.85-1.72-.85-.84 0-1.23.38-1.73.85C47.55 3.4 46.93 4 45.71 4c-1.22 0-1.84-.6-2.39-1.12-.5-.47-.89-.85-1.73-.85-.83 0-1.22.38-1.72.85C39.32 3.4 38.7 4 37.48 4c-1.22 0-1.85-.6-2.4-1.12-.48-.47-.87-.84-1.69-.85-.81.01-1.2.38-1.69.85C31.16 3.4 30.53 4 29.31 4z"/></svg>